<svg width="68.499817" height="44.130585" viewBox="0 0 68.4998 44.1306" fill="none" xmlns="http://www.w3.org/2000/svg" xmlns:xlink="http://www.w3.org/1999/xlink">
	<desc>
			Created with Pixso.
	</desc>
	<defs>
		<filter id="filter_7_2449_dd" x="0.000000" y="0.000000" width="68.499817" height="44.130585" filterUnits="userSpaceOnUse" color-interpolation-filters="sRGB">
			<feFlood flood-opacity="0" result="BackgroundImageFix"/>
			<feColorMatrix in="SourceAlpha" type="matrix" values="0 0 0 0 0 0 0 0 0 0 0 0 0 0 0 0 0 0 127 0" result="hardAlpha"/>
			<feOffset dx="0" dy="4"/>
			<feGaussianBlur stdDeviation="1.33333"/>
			<feComposite in2="hardAlpha" operator="out" k2="-1" k3="1"/>
			<feColorMatrix type="matrix" values="0 0 0 0 0 0 0 0 0 0 0 0 0 0 0 0 0 0 0.25 0"/>
			<feBlend mode="normal" in2="BackgroundImageFix" result="effect_dropShadow_1"/>
			<feBlend mode="normal" in="SourceGraphic" in2="effect_dropShadow_1" result="shape"/>
		</filter>
	</defs>
	<g filter="url(#filter_7_2449_dd)"/>
	<path id="–" d="M5.5365 4.39441C5.92041 4.17728 6.52374 3.94891 7.34644 3.70932C9.03345 3.21805 10.9712 2.9375 13.1596 2.86765C20.0604 2.70901 28.226 4.48694 37.6564 8.20135C34.0911 9.78113 31.3788 10.92 29.5197 11.6179C29.1746 11.4381 28.8159 11.2318 28.4434 10.9989L28.4316 10.9915L28.4194 10.9848C25.5016 9.3801 23.3514 8.2814 21.9685 7.68875C19.7352 6.7316 17.8187 6.25305 16.2189 6.25305C14.8603 6.25305 13.6965 6.73322 12.7276 7.69351C11.7604 8.65213 11.2769 9.80035 11.2769 11.1382C11.2769 12.5007 11.7599 13.665 12.726 14.6311C13.6921 15.5972 14.8564 16.0803 16.2189 16.0803C19.6006 16.0803 24.0114 15.0525 29.4513 12.9968C32.2134 14.4924 34.6177 15.6796 36.6642 16.5583C36.6284 16.5765 36.5918 16.5949 36.5544 16.6136L36.537 16.6223L36.5206 16.6322C34.5305 17.8262 32.8738 18.7498 31.5504 19.403C27.761 17.3564 24.9095 16.3332 22.996 16.3332C22.0649 16.3332 21.2645 16.6635 20.5946 17.3243C19.9259 17.984 19.5915 18.7695 19.5915 19.6806C19.5915 20.616 19.9251 21.4173 20.5922 22.0844C21.2593 22.7515 22.0606 23.0851 22.996 23.0851C25.455 23.0851 28.3 22.3076 31.5309 20.7527C31.8041 20.8989 32.1574 21.1021 32.591 21.3623C33.8663 22.0911 35.2407 22.8199 36.7142 23.5486C36.0762 23.9591 35.489 24.3746 34.9524 24.795C34.6719 24.971 34.2698 25.2351 33.7462 25.5873C33.2561 25.917 32.8651 26.173 32.5732 26.3556C30.376 25.4828 28.6263 25.0465 27.3242 25.0465C26.6735 25.0465 26.1143 25.2804 25.6465 25.7482C25.1787 26.216 24.9448 26.7752 24.9448 27.4258C24.9448 28.0764 25.1787 28.6357 25.6465 29.1035C26.1143 29.5713 26.6735 29.8051 27.3242 29.8051C28.7131 29.8051 30.5104 29.1068 32.7159 27.7101C32.7856 27.7424 32.8649 27.7789 32.9537 27.8199C33.9085 28.2599 34.627 28.6156 35.1089 28.8867C38.6218 30.8383 40.3782 32.9141 40.3782 35.114L40.3782 35.6429L42.9791 36.1306L43.2575 35.5738L43.2575 35.4775C43.3752 34.3283 43.1089 33.1419 42.4587 31.9181C41.1717 29.5049 38.7422 27.5683 35.1702 26.1082C35.3769 25.9694 35.535 25.8608 35.6447 25.7825C36.049 25.4861 36.6707 25.0633 37.5101 24.5141C37.7116 24.3822 37.882 24.2704 38.0212 24.1786C40.5934 25.3099 42.7986 25.8756 44.6369 25.8756C45.425 25.8756 46.0967 25.5933 46.652 25.0286C47.1985 24.4728 47.4718 23.8102 47.4718 23.0407C47.4718 22.2712 47.1985 21.6086 46.652 21.0528C46.0967 20.4881 45.425 20.2057 44.6369 20.2057C42.9401 20.2057 40.7071 21.057 37.9379 22.7594C36.9784 22.314 35.5907 21.5888 33.7747 20.5836C33.5208 20.4431 33.3304 20.3379 33.2037 20.2679L33.1948 20.2631L33.1858 20.2585C33.0704 20.2009 32.9615 20.1459 32.8589 20.0937C34.0847 19.4675 35.5117 18.6772 37.1398 17.7229C37.1406 17.7224 37.1413 17.722 37.142 17.7216L37.1446 17.7201C37.5389 17.4948 37.8523 17.3096 38.0848 17.1647C42.2344 18.7957 46.2219 19.6111 50.0471 19.6111C51.1818 19.6111 52.1468 19.2135 52.9421 18.4182C53.7373 17.623 54.1349 16.658 54.1349 15.5233C54.1349 14.4131 53.7366 13.4641 52.9401 12.6762C52.1421 11.887 51.1778 11.4924 50.0471 11.4924C47.0323 11.4924 43.0146 12.9354 37.9943 15.8213C35.8166 14.9135 33.467 13.7756 30.9456 12.4076C33.3564 11.4393 36.451 10.1051 40.2291 8.40494L40.2384 8.40076L40.2476 8.39621C40.412 8.314 40.6803 8.19879 41.0526 8.0506C41.2384 7.97662 41.3951 7.91275 41.5229 7.85904C48.6967 10.3785 54.3666 11.6382 58.5327 11.6382C62.5107 11.6382 64.4998 10.0857 64.4998 6.98083C64.4998 5.33359 63.9171 3.92725 62.7516 2.76181C61.5862 1.59637 60.1799 1.01364 58.5327 1.01364C56.5799 1.01364 53.9858 1.58066 50.7502 2.71469C48.627 3.45889 45.5354 4.72211 41.4756 6.50439C40.6956 6.25641 39.8336 5.95544 38.8896 5.60147C32.1331 3.14453 26.9454 1.56375 23.3264 0.859131C17.2603 -0.32196 11.475 -0.285248 5.97076 0.969208L5.8302 1.00122L5.59741 1.23407L4 5.31635L5.5365 4.39441ZM58.5327 1.51364C54.3184 1.51364 48.1108 4.13336 41.5046 7.03778C40.5934 6.75305 39.6253 6.41135 38.7141 6.06964C28.6909 2.42487 18.326 -1.33383 6.08185 1.4567L6.0249 1.51364L4.99982 4.13336L5.28455 3.96249C5.28455 3.96249 7.79034 2.53876 13.1436 2.36789C18.0983 2.254 26.5838 3.16519 38.9419 8.17679C35.7527 9.60052 32.5635 11.0243 29.4882 12.1633C29.0327 11.9355 28.634 11.7077 28.1784 11.4229C23.6224 8.91714 19.6359 6.75305 16.2189 6.75305C13.7701 6.75305 11.7769 8.74628 11.7769 11.1382C11.7769 13.587 13.7701 15.5803 16.2189 15.5803C20.0915 15.5803 24.7045 14.2704 29.4882 12.448C32.1079 13.8718 34.8415 15.2955 37.8029 16.4915C37.4612 16.7193 37.1195 16.8901 36.7778 17.0609C35.0693 18.0861 33.3039 19.1111 31.5385 19.9654C28.4062 18.2569 25.5018 16.8332 22.996 16.8332C21.4014 16.8332 20.0915 18.143 20.0915 19.6806C20.0915 21.2752 21.4014 22.5851 22.996 22.5851C25.9004 22.5851 28.7479 21.56 31.5385 20.1932C31.994 20.421 32.8483 20.9335 32.8483 20.9335C34.4429 21.8447 36.0944 22.699 37.746 23.4963C36.8917 24.0088 36.0375 24.5783 35.2402 25.2048C34.329 25.7743 33.4747 26.4007 32.6205 26.9133C30.5133 26.059 28.4631 25.5465 27.3242 25.5465C26.2991 25.5465 25.4448 26.4007 25.4448 27.4258C25.4448 28.4509 26.2991 29.3051 27.3242 29.3051C28.9188 29.3051 30.7411 28.394 32.6774 27.1411C33.5317 27.5397 34.4429 27.9384 35.3541 28.4509C37.4042 29.5899 40.8782 31.9818 40.8782 35.114L40.8782 35.2279L42.7006 35.5696L42.7575 35.4557C42.7575 35.452 42.7585 35.4422 42.7601 35.4266C42.7825 35.2081 42.9211 33.8542 42.0172 32.1526C41.106 30.4442 39.0558 28.0523 34.1012 26.2299C34.4998 25.9451 34.9554 25.6604 35.3541 25.3756C36.2083 24.7492 37.1195 24.1797 37.9738 23.6102C40.2518 24.6353 42.5297 25.3756 44.6369 25.3756C45.9467 25.3756 46.9718 24.2936 46.9718 23.0407C46.9718 21.7878 45.9467 20.7057 44.6369 20.7057C42.5867 20.7057 40.2518 21.9017 37.9738 23.3254C36.3222 22.5851 34.6137 21.6169 32.9622 20.7057C32.9622 20.7057 32.1649 20.3071 31.7662 20.0793C33.5317 19.225 35.2402 18.2569 36.8917 17.2888C37.2903 17.0609 37.689 16.8332 38.0307 16.6053C41.7324 18.0861 45.7189 19.1111 50.0471 19.1111C52.0403 19.1111 53.6349 17.5165 53.6349 15.5233C53.6349 13.587 52.0403 11.9924 50.0471 11.9924C46.0606 11.9924 41.9603 14.0996 38.0307 16.3776C35.1263 15.1816 32.3358 13.7579 29.773 12.3341C33.133 11.0243 36.6069 9.48663 40.0239 7.94897C40.4796 7.72119 40.9921 7.55032 41.5046 7.32254C47.3135 9.37274 52.8946 11.1382 58.5327 11.1382C62.0635 11.1382 63.9998 9.65747 63.9998 6.98083C63.9998 3.96249 61.551 1.51364 58.5327 1.51364ZM39.2266 8.0629C27.495 3.27911 19.2372 2.14011 14.1688 2.14011L13.1436 2.14011C8.64459 2.31094 6.19574 3.27911 5.45544 3.62079L6.19574 1.68451C18.326 -1.10602 28.6909 2.65265 38.6572 6.29742C39.5114 6.58218 40.3657 6.86694 41.163 7.20865C40.4796 7.49338 39.2266 8.0629 39.2266 8.0629ZM39.8452 7.23581C39.4591 7.09689 39.0104 6.94223 38.499 6.77179L38.4922 6.7695L38.4854 6.76703C31.8307 4.33331 26.7163 2.76712 23.1421 2.06845C17.3326 0.932831 11.8077 0.947723 6.5672 2.11313L6.33075 2.73154C8.12372 2.10806 10.3884 1.74438 13.1247 1.64047L13.1342 1.64011L14.1688 1.64011C21.2076 1.64011 29.5567 3.59964 39.2159 7.51871C39.4403 7.41708 39.6501 7.32278 39.8452 7.23581ZM58.5327 10.9104C53.0085 10.9104 47.4844 9.20187 41.7894 7.15167C48.3386 4.3042 54.3753 1.74146 58.5327 1.74146C61.4371 1.74146 63.772 4.07639 63.772 6.98083C63.772 10.227 60.9245 10.9104 58.5327 10.9104ZM43.1566 7.10483C49.5062 9.30853 54.6316 10.4104 58.5327 10.4104C61.6922 10.4104 63.272 9.26721 63.272 6.98083C63.272 5.66669 62.8107 4.54825 61.8879 3.62555C60.9652 2.70282 59.8468 2.24146 58.5327 2.24146C56.7249 2.24146 54.2883 2.77786 51.2231 3.85068C49.408 4.48602 46.7191 5.57071 43.1566 7.10483ZM16.2189 15.3524C13.884 15.3524 12.0046 13.4731 12.0046 11.1382C12.0046 8.86017 13.884 6.98083 16.2189 6.98083C19.579 6.98083 23.5085 9.14493 28.0645 11.6507C28.4631 11.8785 28.8048 12.0494 29.2035 12.2772C24.5336 14.0996 20.0345 15.3524 16.2189 15.3524ZM28.0146 12.196C27.941 12.1553 27.8773 12.1196 27.8235 12.0888L27.8026 12.0773C24.889 10.4749 22.7834 9.39276 21.4855 8.83102C19.4059 7.93091 17.6503 7.48083 16.2189 7.48083C15.1916 7.48083 14.3146 7.84073 13.5881 8.56046C12.8658 9.276 12.5046 10.1352 12.5046 11.1382C12.5046 12.1676 12.8663 13.044 13.5897 13.7674C14.3131 14.4908 15.1895 14.8524 16.2189 14.8524C19.3406 14.8524 23.2725 13.967 28.0146 12.196ZM50.0471 12.2202C51.9265 12.2202 53.4072 13.7009 53.4072 15.5233C53.4072 17.3457 51.9265 18.8834 50.0471 18.8834C45.8328 18.8834 41.9603 17.8582 38.3154 16.4915C42.3019 14.1565 46.1176 12.2202 50.0471 12.2202ZM39.4991 16.3885C43.3055 17.7184 46.8215 18.3834 50.0471 18.3834C50.8411 18.3833 51.5175 18.1006 52.0763 17.5352C52.6302 16.9748 52.9072 16.3042 52.9072 15.5233C52.9072 14.7484 52.6316 14.0887 52.0804 13.544C51.5247 12.9948 50.8469 12.7202 50.0471 12.7202C47.3666 12.7202 43.8506 13.943 39.4991 16.3885ZM22.996 22.3573C21.5153 22.3573 20.3193 21.1613 20.3193 19.6806C20.3193 18.2569 21.5153 17.0609 22.996 17.0609C25.3879 17.0609 28.2354 18.4278 31.3106 20.0793C28.577 21.3891 25.7865 22.3573 22.996 22.3573ZM30.1812 20.0497C26.9615 18.3905 24.5664 17.5609 22.996 17.5609C22.3952 17.5609 21.881 17.7716 21.4533 18.1931C21.0306 18.6095 20.8193 19.1053 20.8193 19.6806C20.8193 20.2829 21.0315 20.7963 21.4559 21.2207C21.8803 21.6451 22.3937 21.8573 22.996 21.8573C25.0654 21.8573 27.4604 21.2548 30.1812 20.0497ZM44.6369 20.9335C45.7759 20.9335 46.744 21.9017 46.744 23.0407C46.744 24.1797 45.7759 25.1478 44.6369 25.1478C42.5867 25.1478 40.4226 24.4075 38.2585 23.4393C40.4796 22.0725 42.6436 20.9335 44.6369 20.9335ZM39.3566 23.3663C41.4423 24.2207 43.2023 24.6478 44.6369 24.6478C45.0683 24.6478 45.444 24.4878 45.764 24.1678C46.084 23.8478 46.244 23.4721 46.244 23.0407C46.244 22.6093 46.084 22.2336 45.764 21.9135C45.444 21.5935 45.0683 21.4335 44.6369 21.4335C43.3501 21.4335 41.59 22.0778 39.3566 23.3663ZM27.3242 29.0774C26.413 29.0774 25.6726 28.337 25.6726 27.4258C25.6726 26.5146 26.413 25.7743 27.3242 25.7743C28.4062 25.7743 30.3425 26.2299 32.3927 27.0841C30.5133 28.2231 28.8048 29.0774 27.3242 29.0774ZM31.252 27.1701C29.6547 26.5729 28.3454 26.2743 27.3242 26.2743C26.5565 26.2743 26.1726 26.6581 26.1726 27.4258C26.1726 28.1935 26.5565 28.5774 27.3242 28.5774C28.2599 28.5774 29.5693 28.1083 31.252 27.1701ZM41.7894 32.2096C42.5867 33.7473 42.5867 34.9432 42.5297 35.3419L41.106 35.0571C41.0491 31.5262 36.8348 28.6218 32.9052 27.0272C33.2469 26.7994 33.5317 26.5716 33.8734 26.4007C38.828 28.1662 40.9351 30.558 41.7894 32.2096ZM34.3346 27.1045C36.0857 27.9226 37.5703 28.868 38.7883 29.9408C40.4966 31.4453 41.4282 33.0126 41.5834 34.6427L42.0595 34.7379C42.0311 34.0691 41.7931 33.3029 41.3453 32.4393C40.2085 30.2415 37.8716 28.4633 34.3346 27.1045Z" fill="#000000" fill-opacity="1.000000" fill-rule="evenodd"/>
</svg>
